<?xml version="1.0" standalone="no"?>
<!DOCTYPE svg PUBLIC "-//W3C//DTD SVG 20010904//EN"
 "http://www.w3.org/TR/2001/REC-SVG-20010904/DTD/svg10.dtd">
<svg version="1.0" xmlns="http://www.w3.org/2000/svg"
 width="1282.000000pt" height="1282.000000pt" viewBox="0 0 1282.000000 1282.000000"
 preserveAspectRatio="xMidYMid meet">
<metadata>
Created by potrace 1.11, written by Peter Selinger 2001-2013
</metadata>
<g transform="translate(0.000000,1282.000000) scale(0.100000,-0.100000)"
fill="#000000" stroke="none">
<path d="M6360 12759 c-58 -34 -121 -70 -140 -81 -19 -11 -154 -89 -300 -173
-635 -366 -798 -459 -840 -483 -25 -14 -58 -33 -75 -43 -16 -10 -57 -33 -90
-52 -33 -18 -103 -58 -155 -89 -52 -30 -187 -108 -300 -173 -113 -65 -293
-168 -400 -230 -107 -62 -211 -122 -230 -132 -47 -27 -422 -243 -540 -311
-129 -75 -276 -159 -330 -189 -25 -14 -70 -40 -100 -58 -30 -18 -129 -75 -220
-127 -284 -163 -563 -324 -900 -518 -544 -312 -630 -363 -630 -369 0 -3 10
-11 23 -17 16 -8 471 -274 657 -385 105 -62 358 -209 400 -232 30 -17 57 -34
58 -39 2 -4 8 -8 13 -8 5 0 66 -34 136 -75 120 -72 128 -75 157 -64 17 7 38
17 46 23 8 6 24 16 35 22 35 19 1019 581 1055 603 19 11 41 24 49 28 8 3 64
35 125 71 61 35 135 77 165 94 29 16 76 43 103 59 27 16 51 29 54 29 3 0 30
16 60 35 30 19 56 35 58 35 1 0 59 32 127 71 68 39 144 83 168 97 25 14 67 38
93 53 27 16 50 29 52 29 2 0 65 36 140 80 75 44 139 80 141 80 3 0 29 16 59
35 30 19 57 35 60 35 5 0 219 122 246 140 8 6 21 13 29 17 8 4 76 42 150 84
74 43 136 77 137 76 1 -1 -20 -101 -47 -222 -27 -121 -51 -229 -53 -240 -2
-11 -27 -123 -55 -248 -28 -126 -53 -238 -55 -250 -2 -12 -14 -66 -26 -121
-28 -126 -29 -132 -36 -158 -3 -13 -6 -32 -8 -43 -2 -11 -6 -29 -9 -40 -3 -11
-9 -36 -12 -55 -3 -19 -8 -43 -11 -52 -5 -17 -12 -47 -20 -88 -3 -14 -7 -32
-9 -40 -2 -8 -7 -29 -10 -46 -4 -29 -3 -31 23 -28 15 2 70 6 122 9 52 3 115 8
140 10 25 2 88 7 140 11 52 3 115 7 140 9 97 7 228 16 295 20 39 3 99 7 135
10 170 12 201 15 280 20 47 3 110 8 140 10 30 2 93 7 140 10 47 3 110 8 140
10 30 2 98 7 150 10 52 4 111 8 130 10 19 2 85 6 145 10 61 4 133 8 160 11 28
2 84 6 125 9 41 3 102 7 135 10 33 2 101 7 150 10 50 3 110 8 135 11 41 4 43
4 25 -9 -26 -18 -164 -97 -300 -172 -22 -13 -224 -127 -450 -255 -225 -128
-459 -260 -520 -295 -60 -34 -126 -71 -145 -82 -19 -11 -70 -40 -114 -64 -43
-24 -94 -53 -115 -65 -20 -11 -58 -33 -86 -48 -27 -16 -80 -46 -117 -67 -36
-21 -69 -39 -73 -39 -3 0 -18 -8 -33 -19 -22 -15 -206 -120 -544 -310 -21 -12
-53 -29 -70 -39 -149 -85 -270 -154 -308 -175 -25 -14 -100 -56 -167 -94
l-122 -69 107 -64 c251 -151 876 -521 932 -553 19 -11 51 -30 70 -42 91 -58
310 -185 318 -185 5 0 74 37 153 83 79 46 232 134 339 196 259 150 295 171
368 212 20 12 73 42 117 69 44 26 154 90 245 142 313 181 545 316 580 337 19
11 41 24 49 27 7 4 117 68 245 142 127 74 247 144 266 154 35 20 186 108 540
313 102 59 205 119 230 133 25 13 50 28 55 32 6 4 26 17 45 27 19 11 154 89
300 173 146 85 333 193 415 240 83 48 195 113 250 145 55 31 141 81 190 110
50 29 216 126 370 214 154 89 287 166 295 171 35 21 188 110 211 123 67 37 99
60 92 67 -7 6 -140 83 -333 192 -19 11 -75 44 -125 73 -49 29 -110 63 -135 77
-25 14 -110 63 -190 110 -80 46 -152 87 -160 91 -8 4 -24 13 -35 20 -25 15
-167 97 -215 124 -19 11 -152 88 -296 171 -190 109 -267 149 -287 147 -15 -2
-98 -6 -184 -10 -87 -3 -189 -8 -228 -10 -82 -5 -272 -14 -435 -20 -63 -3
-160 -7 -215 -10 -55 -3 -158 -7 -230 -10 -71 -3 -166 -8 -210 -10 -44 -3
-141 -7 -215 -10 -74 -3 -170 -8 -214 -11 l-79 -5 7 58 c3 32 8 69 11 83 2 14
11 75 20 135 8 61 17 124 20 140 16 113 36 256 40 285 3 19 7 46 10 60 2 14 7
48 10 75 3 28 7 61 10 75 2 14 7 43 10 65 3 22 7 51 10 65 2 14 7 46 10 72 l5
46 -262 154 c-145 84 -270 158 -279 163 -9 6 -34 20 -55 32 -22 11 -97 56
-169 98 -71 43 -143 85 -160 95 -146 84 -692 404 -700 410 -11 8 -104 60 -108
60 -1 0 -49 -28 -107 -61z"/>
<path d="M990 6183 l0 -3238 196 -115 c107 -63 223 -132 257 -152 34 -20 82
-49 107 -63 25 -13 123 -71 217 -127 156 -93 531 -315 609 -360 l32 -19 0
1156 c0 636 2 1158 5 1161 2 3 82 -40 177 -95 94 -56 174 -101 176 -101 3 0
30 -16 60 -35 30 -19 57 -35 60 -35 3 0 18 -8 32 -19 15 -10 47 -29 72 -43 74
-41 850 -488 925 -533 39 -23 77 -45 85 -48 8 -4 36 -20 61 -35 25 -15 182
-105 348 -201 l302 -174 -6 -1081 c-8 -1172 -8 -1159 -6 -1196 1 -19 11 -31
39 -45 20 -10 48 -27 62 -36 14 -9 54 -32 90 -51 36 -20 106 -59 155 -88 50
-29 108 -62 130 -74 22 -12 146 -82 275 -156 129 -73 300 -170 380 -215 80
-46 177 -101 215 -123 39 -22 72 -38 74 -36 6 6 7 6404 1 6414 -3 4 -124 79
-270 165 -460 274 -668 398 -905 539 -126 76 -234 138 -238 139 -6 1 -9 -520
-10 -1225 l0 -1227 -36 20 c-20 11 -49 28 -66 38 -111 67 -664 398 -680 407
-27 15 -915 545 -1089 650 -76 46 -141 84 -144 84 -3 0 -13 6 -21 14 -9 8 -32
22 -51 33 -19 10 -72 40 -117 67 l-82 48 -1 792 c-1 435 -1 972 -1 1193 l0
403 -87 53 c-48 30 -131 81 -185 113 -53 32 -110 67 -125 76 -15 10 -36 22
-47 28 -11 5 -85 50 -165 100 -80 50 -152 93 -160 97 -13 6 -88 51 -166 100
-10 7 -46 29 -79 48 -56 34 -288 174 -368 224 l-37 23 0 -3239z"/>
<path d="M11205 8036 c-16 -8 -42 -26 -56 -42 -28 -31 -236 -373 -309 -509
-23 -44 -46 -84 -50 -90 -9 -13 -81 -148 -165 -309 -57 -112 -66 -134 -60
-164 18 -97 86 -110 163 -31 17 18 136 211 263 428 127 218 243 416 258 441
14 25 40 79 57 120 l31 75 -25 48 c-28 52 -49 59 -107 33z"/>
<path d="M9517 7895 c-49 -17 -82 -47 -106 -99 -29 -61 -36 -120 -56 -497 -23
-428 -23 -575 0 -597 13 -13 104 -5 128 11 27 17 69 87 82 133 5 16 9 31 10
34 21 65 25 108 30 305 2 105 7 227 10 273 3 45 7 119 10 165 15 229 15 238
-10 263 -27 27 -44 29 -98 9z"/>
<path d="M9995 6809 c-22 -4 -56 -11 -75 -15 -19 -3 -44 -11 -55 -17 -11 -6
-21 -10 -23 -9 -16 12 -247 -87 -360 -154 -53 -31 -99 -60 -102 -64 -3 -4 -15
-12 -27 -19 -78 -41 -349 -285 -467 -421 -22 -25 -78 -87 -125 -139 -47 -51
-99 -107 -115 -125 -218 -239 -532 -781 -678 -1171 -49 -130 -117 -344 -119
-370 0 -3 -7 -24 -15 -47 -16 -45 -58 -248 -70 -334 -3 -27 -8 -58 -10 -69 -2
-10 -6 -51 -10 -90 -3 -38 -8 -86 -10 -105 -5 -56 -5 -233 1 -260 3 -14 7 -38
10 -55 2 -16 9 -55 15 -85 6 -30 14 -66 16 -80 45 -230 155 -395 344 -514 131
-83 169 -118 274 -251 l105 -134 -33 -49 c-48 -69 -84 -152 -109 -251 -20 -78
-22 -111 -21 -351 0 -146 3 -282 7 -302 10 -47 64 -88 117 -88 45 -1 114 -32
153 -70 89 -87 178 -78 311 34 77 64 306 232 443 325 190 128 275 231 354 427
21 53 53 120 71 148 36 55 37 57 71 101 95 120 159 261 172 380 13 120 14 143
21 290 13 262 12 271 -64 342 -31 29 -34 37 -29 70 2 21 22 67 44 103 22 36
74 151 116 257 100 250 128 310 197 413 60 90 114 197 175 345 20 50 42 104
50 120 7 17 36 89 64 160 29 72 56 139 61 150 69 155 153 452 175 625 3 25 8
61 11 80 9 59 12 357 4 402 -9 50 -22 166 -22 188 0 8 -6 51 -14 94 -27 141
-101 274 -218 392 -97 97 -178 146 -301 181 -58 17 -252 24 -310 12z m138
-393 c120 -28 256 -130 332 -251 90 -143 106 -216 106 -500 0 -204 -2 -253
-16 -360 -19 -149 -68 -328 -152 -550 -18 -49 -38 -99 -43 -110 -5 -11 -19
-45 -30 -75 -26 -69 -18 -51 -155 -334 -135 -277 -162 -342 -209 -503 -45
-155 -40 -139 -91 -263 -46 -114 -165 -320 -190 -332 -40 -18 -56 -5 -50 44 3
24 7 50 10 58 2 8 7 44 10 80 3 36 8 72 10 80 3 8 7 71 10 140 3 69 7 168 10
220 2 52 7 147 10 210 6 132 14 297 20 420 21 388 17 452 -32 478 -29 16 -111
7 -141 -15 -23 -17 -103 -107 -145 -163 -72 -95 -88 -110 -109 -99 -35 19
-123 13 -173 -11 -90 -44 -144 -125 -171 -255 -1 -5 -7 -28 -13 -50 -5 -22
-13 -58 -16 -80 -3 -22 -8 -51 -10 -65 -14 -78 -25 -262 -39 -645 -17 -451
-21 -529 -32 -705 -4 -63 -7 -133 -6 -155 0 -52 -21 -97 -57 -118 -39 -23 -72
-21 -111 6 -40 26 -60 58 -103 164 -66 161 -140 267 -242 350 -79 63 -108 96
-151 167 -76 127 -116 309 -118 536 -1 146 5 229 23 330 6 30 12 66 15 80 23
142 114 436 187 609 268 630 671 1149 1129 1455 85 57 277 156 302 156 8 0 18
4 24 9 5 6 52 21 104 34 94 25 226 30 303 13z m-543 -1705 c11 -2 3 -259 -15
-461 -6 -71 -14 -222 -30 -515 -14 -258 -16 -303 -20 -340 -10 -116 -17 -197
-19 -261 -5 -104 -29 -151 -101 -194 -32 -19 -141 -90 -242 -157 -101 -68
-187 -123 -192 -123 -8 0 -7 107 3 285 3 55 8 145 11 200 3 55 7 141 10 190 3
50 7 140 10 200 3 61 7 148 10 195 3 47 7 132 10 190 12 252 28 394 50 446 11
28 79 73 91 61 2 -2 10 -23 17 -47 17 -58 60 -91 104 -79 34 10 69 57 143 194
123 229 119 224 139 220 9 -2 18 -4 21 -4z m316 -1719 c-4 -21 -15 -102 -21
-162 -3 -25 -7 -58 -10 -75 -2 -16 -7 -90 -10 -164 -9 -214 -27 -238 -365
-468 -338 -231 -494 -339 -739 -511 -153 -108 -211 -141 -254 -142 -19 0 -19
-19 -2 326 12 242 30 302 112 379 26 25 235 170 463 323 496 332 514 345 518
355 2 4 7 7 11 7 4 0 65 38 135 85 105 70 130 83 146 75 10 -6 17 -18 16 -28z
m-327 -1099 c-40 -66 -89 -121 -143 -160 -290 -209 -653 -453 -675 -453 -4 0
-15 16 -25 36 -12 27 -14 40 -6 48 6 6 198 142 428 303 351 245 419 289 431
278 12 -11 10 -19 -10 -52z"/>
<path d="M11554 6264 c-76 -48 -155 -96 -174 -107 -19 -12 -37 -24 -40 -27 -3
-3 -32 -23 -65 -45 -298 -197 -349 -257 -314 -375 15 -50 37 -61 93 -47 46 12
225 117 408 241 68 45 151 99 185 119 137 83 179 156 174 300 -1 26 -2 27 -64
27 -62 0 -66 -2 -203 -86z"/>
<path d="M7631 5843 c-26 -5 -111 -85 -111 -105 0 -7 -14 -39 -30 -71 -18 -38
-27 -68 -24 -85 6 -33 42 -72 92 -99 20 -11 137 -79 260 -151 169 -99 229
-129 248 -126 88 16 168 127 173 237 2 63 -20 98 -86 132 -41 21 -178 99 -203
115 -8 5 -28 17 -45 26 -16 10 -61 38 -100 63 -76 50 -119 72 -138 70 -7 -1
-23 -4 -36 -6z"/>
<path d="M10491 4149 c-13 -5 -31 -19 -41 -32 -10 -12 -30 -35 -44 -52 -69
-79 -81 -162 -32 -209 13 -11 112 -72 221 -133 140 -81 206 -113 229 -113 26
0 44 11 85 50 56 54 81 101 88 167 7 61 -13 82 -162 172 -246 148 -296 170
-344 150z"/>
<path d="M7408 3574 c-202 -138 -458 -308 -598 -396 -121 -76 -182 -174 -174
-277 4 -45 14 -53 72 -59 60 -5 67 -2 296 147 539 349 568 369 603 423 22 33
25 46 21 107 -4 84 -28 124 -76 129 -24 3 -53 -13 -144 -74z"/>
<path d="M8013 2487 c-28 -16 -83 -67 -108 -102 -20 -27 -384 -637 -409 -685
-7 -14 -43 -83 -80 -153 -37 -71 -70 -140 -72 -154 -10 -53 26 -113 64 -107 6
1 21 2 33 3 41 2 146 140 279 366 150 255 284 494 344 611 66 130 66 131 51
167 -27 64 -56 80 -102 54z"/>
</g>
</svg>
